<svg id="Layer_1" data-name="Layer 1" xmlns="http://www.w3.org/2000/svg" width="71.873mm" height="44.7356mm" viewBox="0 0 203.7345 126.8095"><defs><style>.cls-1{fill:#ff7c5e;}.cls-2{fill:#f0e6e7;}</style></defs><ellipse class="cls-1" cx="67.6931" cy="71.5745" rx="53.0556" ry="52.7093"/><path class="cls-2" d="M40.813,54.3338l1.0079-.7281a6.6724,6.6724,0,0,1,2.6884-1.12q1.7359,0,3.752,3.1362a6.5123,6.5123,0,0,1,1.2314,3.1358,2.71,2.71,0,0,1-.7558,1.96,8.7972,8.7972,0,0,1-1.7637,1.4q-1.0078.6168-1.9316,1.1758a20.3154,20.3154,0,0,1-3.78,1.4561,18.4159,18.4159,0,0,1-5.5166.896,21.4835,21.4835,0,0,1-5.375-.7,22.6854,22.6854,0,0,1-5.6-2.3521,23.0676,23.0676,0,0,1-5.1807-4.0317,18.5308,18.5308,0,0,1-3.78-6.104,21.6649,21.6649,0,0,1-1.4843-8.0923,20.7146,20.7146,0,0,1,1.457-7.9238,18.1174,18.1174,0,0,1,3.7236-5.88,21.3057,21.3057,0,0,1,5.18-3.8921,22.6665,22.6665,0,0,1,11.0322-3.0239,18.62,18.62,0,0,1,5.3477.812A18.7873,18.7873,0,0,1,45.1812,26.11l1.3447.7842q1.0078.6168,1.5674,1.0078a3.3943,3.3943,0,0,1,1.4561,2.66A5.3576,5.3576,0,0,1,48.3736,33.67q-2.1842,3.0241-3.92,3.0239a5.9124,5.9124,0,0,1-2.8565-1.2319,9.6753,9.6753,0,0,0-6.2724-1.9038,12.23,12.23,0,0,0-7.168,2.52A9.424,9.424,0,0,0,25.358,39.55a12.0161,12.0161,0,0,0,0,10.1362,9.6573,9.6573,0,0,0,2.8554,3.5278,11.9881,11.9881,0,0,0,7.1114,2.4639,11.6522,11.6522,0,0,0,3.2763-.4477A8.4928,8.4928,0,0,0,40.813,54.3338Z"/><path class="cls-2" d="M63.1,56.7976H78.3326a6.3687,6.3687,0,0,1,2.6875.42,2.1281,2.1281,0,0,1,1.1211,1.3165,10.2787,10.2787,0,0,1,0,4.76,1.9331,1.9331,0,0,1-.9522,1.232,6.3109,6.3109,0,0,1-2.9121.56h-20.16q-3.9213,0-4.5917-2.1279a8.81,8.81,0,0,1-.336-2.856V28.9656a16.3276,16.3276,0,0,1,.084-1.9316,4.458,4.458,0,0,1,.5322-1.4844q.7823-1.5117,4.3672-1.5117,3.92,0,4.6485,2.0717A11.1558,11.1558,0,0,1,63.1,29.0217Z"/><path class="cls-2" d="M109.7486,26.95l15.1191,31.248a7.3107,7.3107,0,0,1,.9522,2.856q0,2.0163-3.2481,3.64a7.3546,7.3546,0,0,1-2.9961.9522,2.9944,2.9944,0,0,1-1.792-.5039,3.3384,3.3384,0,0,1-1.0078-1.064q-.3075-.5595-.8681-1.68L112.9957,56.35H97.4839l-2.9121,6.0478q-.561,1.1206-.8681,1.624a3.98,3.98,0,0,1-1.0078,1.0362,2.8843,2.8843,0,0,1-1.792.5317,7.3435,7.3435,0,0,1-2.9961-.9521Q84.66,63.0708,84.66,61.0535a7.3107,7.3107,0,0,1,.9522-2.856l15.12-31.3037a4.8938,4.8938,0,0,1,1.876-2.0722,4.96,4.96,0,0,1,2.66-.7837A4.7446,4.7446,0,0,1,109.7486,26.95Zm-4.5371,13.44-3.6953,7.6719h7.4472Z"/><path class="cls-2" d="M127.8365,59.3176a5.3618,5.3618,0,0,1-1.4571-3.22q0-1.4282,2.4082-3.78a4.2515,4.2515,0,0,1,2.9688-1.3437q1.5673,0,4.3672,2.8a8.5128,8.5128,0,0,0,2.24,1.82,5.32,5.32,0,0,0,2.6875.8682q5.2091,0,5.209-4.2559a2.5171,2.5171,0,0,0-1.4277-2.1562,10.5063,10.5063,0,0,0-3.5567-1.26,32.45,32.45,0,0,1-9.1836-3.3042,9.2646,9.2646,0,0,1-3.5566-3.7241A12.3655,12.3655,0,0,1,127.108,35.63a11.7717,11.7717,0,0,1,3.6679-8.5957q3.6679-3.6673,9.9961-3.6685a20.4627,20.4627,0,0,1,6.1319.8682,11.78,11.78,0,0,1,3.8359,1.7641l1.4,1.064q1.7358,1.6245,1.7353,2.7441a6.1745,6.1745,0,0,1-1.3437,3.08q-1.9042,2.8015-3.92,2.8a5.7467,5.7467,0,0,1-2.9121-1.12,6.3953,6.3953,0,0,1-.6436-.56,8.7752,8.7752,0,0,0-.8682-.728,5.6143,5.6143,0,0,0-2.9961-.728,5.0367,5.0367,0,0,0-3.0234.8681,2.8027,2.8027,0,0,0-1.2051,2.4082,2.8813,2.8813,0,0,0,1.4287,2.4917,8.8107,8.8107,0,0,0,3.5557,1.2881,42.0817,42.0817,0,0,1,4.6484,1.0362,29.0113,29.0113,0,0,1,4.6485,1.708,8.2055,8.2055,0,0,1,3.5547,3.5,12.1536,12.1536,0,0,1,1.4287,6.1318,13.5888,13.5888,0,0,1-1.4561,6.4121,11.0789,11.0789,0,0,1-3.8086,4.2837,17.3726,17.3726,0,0,1-9.6875,2.9683,18.82,18.82,0,0,1-4.9843-.6441,15.93,15.93,0,0,1-7.9512-5.0678Z"/><path class="cls-2" d="M160.483,59.3176a5.3634,5.3634,0,0,1-1.4551-3.22q0-1.4282,2.4082-3.78a4.2454,4.2454,0,0,1,2.9668-1.3437q1.5674,0,4.3691,2.8a8.46,8.46,0,0,0,2.2393,1.82,5.3171,5.3171,0,0,0,2.6885.8682q5.2074,0,5.208-4.2559a2.5163,2.5163,0,0,0-1.4287-2.1562,10.4777,10.4777,0,0,0-3.5557-1.26,32.4707,32.4707,0,0,1-9.1846-3.3042,9.268,9.268,0,0,1-3.5547-3.7241,12.3453,12.3453,0,0,1-1.4287-6.1318,11.7718,11.7718,0,0,1,3.668-8.5957q3.6665-3.6673,9.9961-3.6685a20.4621,20.4621,0,0,1,6.1318.8682,11.77,11.77,0,0,1,3.836,1.7641l1.4,1.064q1.7345,1.6245,1.7364,2.7441a6.1786,6.1786,0,0,1-1.3448,3.08q-1.9043,2.8015-3.92,2.8a5.7436,5.7436,0,0,1-2.9121-1.12,6.41,6.41,0,0,1-.6435-.56,8.7867,8.7867,0,0,0-.8682-.728,5.6146,5.6146,0,0,0-2.9961-.728,5.0416,5.0416,0,0,0-3.0244.8681,2.8034,2.8034,0,0,0-1.2031,2.4082,2.88,2.88,0,0,0,1.4277,2.4917,8.8046,8.8046,0,0,0,3.5557,1.2881,42.0918,42.0918,0,0,1,4.6484,1.0362,28.9671,28.9671,0,0,1,4.6475,1.708,8.2087,8.2087,0,0,1,3.5566,3.5,12.1629,12.1629,0,0,1,1.4277,6.1318,13.5888,13.5888,0,0,1-1.456,6.4121,11.0933,11.0933,0,0,1-3.8076,4.2837,17.3782,17.3782,0,0,1-9.6885,2.9683,18.8136,18.8136,0,0,1-4.9834-.6441,13.4653,13.4653,0,0,1-3.8086-1.5962,13.6334,13.6334,0,0,1-4.1445-3.4716Z"/><path class="cls-2" d="M132.71,80.3259a14.8142,14.8142,0,0,1,1.4551,6.608,14.6357,14.6357,0,0,1-1.4551,6.58,12.9376,12.9376,0,0,1-3.7519,4.6758,15.6,15.6,0,0,1-9.6328,3.584h-7v6.3281a16.1329,16.1329,0,0,1-.084,1.9322,4.494,4.494,0,0,1-.5313,1.4838q-.7851,1.5119-4.3691,1.5118-3.92,0-4.5918-2.0718a9.3725,9.3725,0,0,1-.336-2.9121v-31.08a16.35,16.35,0,0,1,.084-1.9316,4.481,4.481,0,0,1,.5323-1.4844q.7836-1.5117,4.3681-1.5117h11.9844a15.5379,15.5379,0,0,1,9.5762,3.5839A12.896,12.896,0,0,1,132.71,80.3259ZM122.6851,90.63a4.3461,4.3461,0,0,0,1.624-3.6958,4.4262,4.4262,0,0,0-1.624-3.7242,5.4282,5.4282,0,0,0-3.36-1.26h-7v9.9121h7.0566A5.4278,5.4278,0,0,0,122.6851,90.63Z"/><path class="cls-2" d="M137.8042,76.9656a16.35,16.35,0,0,1,.084-1.9316,4.4585,4.4585,0,0,1,.5323-1.4844q.7821-1.5117,4.3671-1.5117,3.92,0,4.6485,2.0717a11.1549,11.1549,0,0,1,.2793,2.9121v31.1358a16.048,16.048,0,0,1-.084,1.96,4.4654,4.4654,0,0,1-.5313,1.4556q-.7851,1.5125-4.3681,1.5122-3.9214,0-4.5918-2.1279a8.8125,8.8125,0,0,1-.336-2.856Z"/><path class="cls-2" d="M178.7115,73.7459a2.6656,2.6656,0,0,1,1.5957-1.3159,8.9561,8.9561,0,0,1,2.66-.3365,9.6584,9.6584,0,0,1,2.5762.28A4.0988,4.0988,0,0,1,187,73.0457a2.2961,2.2961,0,0,1,.7,1.1762,8.8176,8.8176,0,0,1,.3359,2.856v31.08a16.2363,16.2363,0,0,1-.084,1.96,4.4959,4.4959,0,0,1-.5322,1.4556q-.7853,1.5125-4.3682,1.5122a9.2169,9.2169,0,0,1-3.0234-.3359,3.2668,3.2668,0,0,1-1.4-1.064q-12.6006-16.8-16.5762-21.9521v18.4238a16.0273,16.0273,0,0,1-.084,1.96,4.5119,4.5119,0,0,1-.5312,1.4556q-.7853,1.5125-4.3692,1.5122-3.4716,0-4.2558-1.5122a4.4546,4.4546,0,0,1-.5313-1.5117,16.8988,16.8988,0,0,1-.0839-1.96V76.8538a6.833,6.833,0,0,1,.5312-3.1079,2.6675,2.6675,0,0,1,1.5967-1.3159,11.49,11.49,0,0,1,5.4033-.0284,3.4463,3.4463,0,0,1,1.373.7,14.7292,14.7292,0,0,1,1.2872,1.4561Q174.2026,90.63,178.1792,95.7815V76.8538A6.817,6.817,0,0,1,178.7115,73.7459Z"/><path class="cls-2" d="M88.8658,88.5674,74.4437,74.5188c-1.3221-1.3418-1.655-.5093-1.655.1367v6.47L62.0552,88.89H55.5777c-1.8432,0-.3789,1.9406-.6611,1.6175l8.1328,7.904-6.8107,6.7013a.9352.9352,0,0,0,0,1.3391.9871.9871,0,0,0,1.3728,0l6.808-6.6539,8.087,7.9485c-.2364-.2311,1.7008,1.0162,1.7008-.6461v-6.3781l7.9444-10.4906h6.0049c.9939-.0472,2.3185-.0472.7092-1.6647ZM57.8937,90.6943h4.21l10.26,10.0284v4.1121Zm15.3679,8.18L63.9467,89.77l9.5055-6.7484L80.26,89.77Zm8.4172-10.4906-6.9987-6.84V77.4285l11.2086,10.955Z"/></svg>