<svg id="Layer_1" data-name="Layer 1" xmlns="http://www.w3.org/2000/svg" width="71.873mm" height="44.7356mm" viewBox="0 0 203.7345 126.8095"><defs><style>.cls-1{fill:#ff7c5e;}.cls-2{font-size:56px;font-family:FredokaOne-Regular, Fredoka One;}.cls-2,.cls-4{fill:#f0e6e7;}.cls-3{letter-spacing:-0.03em;}</style></defs><ellipse class="cls-1" cx="67.6931" cy="71.5745" rx="53.0556" ry="52.7093"/><text class="cls-2" transform="translate(12.9253 65.0855)">CL<tspan class="cls-3" x="70.8945" y="0">A</tspan><tspan x="112.0547" y="0">SS</tspan><tspan x="87.2476" y="48">PIN</tspan></text><path class="cls-4" d="M88.8658,88.5674,74.4437,74.5188c-1.3221-1.3418-1.655-.5093-1.655.1367v6.47L62.0552,88.89H55.5777c-1.8432,0-.3789,1.9406-.6611,1.6175l8.1328,7.904-6.8107,6.7013a.9352.9352,0,0,0,0,1.3391.9871.9871,0,0,0,1.3728,0l6.808-6.6539,8.087,7.9485c-.2364-.2311,1.7008,1.0162,1.7008-.6461v-6.3781l7.9444-10.4906h6.0049c.9939-.0472,2.3185-.0472.7092-1.6647ZM57.8937,90.6943h4.21l10.26,10.0284v4.1121Zm15.3679,8.18L63.9467,89.77l9.5055-6.7484L80.26,89.77Zm8.4172-10.4906-6.9987-6.84V77.4285l11.2086,10.955Z"/></svg>