<svg id="Layer_1" data-name="Layer 1" xmlns="http://www.w3.org/2000/svg" width="68.9043mm" height="43.5043mm" viewBox="0 0 195.3191 123.3191"><defs><style>.cls-1{fill:#ff7c5e;}.cls-2{fill:#1c1f4b;}.cls-3{fill:#f0e6e7;}</style></defs><title>Pin-bigger-circle-orange</title><ellipse class="cls-1" cx="62.5896" cy="61.6593" rx="53.0556" ry="52.7093"/><path class="cls-2" d="M35.71,44.4181l1.0078-.7275a6.6629,6.6629,0,0,1,2.6885-1.12q1.7358,0,3.7519,3.1357a6.5159,6.5159,0,0,1,1.2315,3.1358,2.71,2.71,0,0,1-.7559,1.96,8.78,8.78,0,0,1-1.7637,1.4q-1.0078.6166-1.9316,1.1758a20.2831,20.2831,0,0,1-3.78,1.4561,18.42,18.42,0,0,1-5.5166.8964,21.5032,21.5032,0,0,1-5.375-.7,22.6928,22.6928,0,0,1-5.6-2.3525,23.0821,23.0821,0,0,1-5.1807-4.0312,18.5378,18.5378,0,0,1-3.78-6.1045A21.6633,21.6633,0,0,1,9.2213,34.45a20.7151,20.7151,0,0,1,1.457-7.9239,18.1185,18.1185,0,0,1,3.7236-5.88,21.3051,21.3051,0,0,1,5.18-3.8921A22.667,22.667,0,0,1,30.6139,13.73a18.6157,18.6157,0,0,1,5.3476.8121,18.7852,18.7852,0,0,1,4.1162,1.6518l1.3448.7842q1.0077.6166,1.5673,1.0078a3.394,3.394,0,0,1,1.4561,2.66A5.3576,5.3576,0,0,1,43.27,23.7541q-2.184,3.0241-3.92,3.0239a5.9134,5.9134,0,0,1-2.8565-1.2319,9.6749,9.6749,0,0,0-6.2724-1.9038,12.23,12.23,0,0,0-7.168,2.52,9.425,9.425,0,0,0-2.7988,3.4717,11.1631,11.1631,0,0,0-1.1211,5.0683,11.1608,11.1608,0,0,0,1.1211,5.0684A9.6607,9.6607,0,0,0,23.11,43.298a11.9876,11.9876,0,0,0,7.1113,2.4639,11.6716,11.6716,0,0,0,3.2764-.4473A8.49,8.49,0,0,0,35.71,44.4181Z"/><path class="cls-2" d="M57.9967,46.882H73.2291a6.3751,6.3751,0,0,1,2.6875.42,2.13,2.13,0,0,1,1.1211,1.3164,10.2791,10.2791,0,0,1,0,4.76,1.935,1.935,0,0,1-.9522,1.2324,6.3165,6.3165,0,0,1-2.9121.56h-20.16q-3.9214,0-4.5918-2.1279a8.8086,8.8086,0,0,1-.336-2.8555V19.05a16.3515,16.3515,0,0,1,.084-1.9317,4.4558,4.4558,0,0,1,.5323-1.4843q.7821-1.5119,4.3671-1.5118,3.92,0,4.6485,2.0718a11.1549,11.1549,0,0,1,.2793,2.9121Z"/><path class="cls-2" d="M104.6451,17.0339l15.1192,31.2485a7.31,7.31,0,0,1,.9521,2.8555q0,2.017-3.248,3.6406a7.3629,7.3629,0,0,1-2.9961.9521,2.9935,2.9935,0,0,1-1.792-.5039,3.3321,3.3321,0,0,1-1.0078-1.0644q-.3077-.56-.8682-1.68l-2.9121-6.0479H92.3805l-2.9121,6.0479q-.5611,1.1207-.8682,1.624a3.9786,3.9786,0,0,1-1.0078,1.0361,2.8867,2.8867,0,0,1-1.792.5313,7.3424,7.3424,0,0,1-2.9961-.9522q-3.2475-1.5658-3.2481-3.5839a7.309,7.309,0,0,1,.9522-2.8555l15.12-31.3042a4.8952,4.8952,0,0,1,1.876-2.0723,4.9609,4.9609,0,0,1,2.66-.7837A4.7444,4.7444,0,0,1,104.6451,17.0339Zm-4.5371,13.44-3.6953,7.6719H103.86Z"/><path class="cls-2" d="M122.733,49.4025a5.3628,5.3628,0,0,1-1.457-3.22q0-1.4283,2.4082-3.78a4.2487,4.2487,0,0,1,2.9687-1.3437q1.5673,0,4.3672,2.8a8.5255,8.5255,0,0,0,2.24,1.8193,5.3151,5.3151,0,0,0,2.6875.8682q5.2091,0,5.209-4.2559a2.5174,2.5174,0,0,0-1.4277-2.1562,10.5036,10.5036,0,0,0-3.5566-1.26,30.42,30.42,0,0,1-4.5918-1.26,30.1089,30.1089,0,0,1-4.5918-2.0439,9.2648,9.2648,0,0,1-3.5567-3.7241,12.367,12.367,0,0,1-1.4277-6.1319,11.7716,11.7716,0,0,1,3.668-8.5957q3.6679-3.6672,9.9961-3.6684a20.4658,20.4658,0,0,1,6.1318.8681,11.779,11.779,0,0,1,3.8359,1.7642l1.4,1.064q1.7358,1.6245,1.7354,2.7441a6.1752,6.1752,0,0,1-1.3438,3.08q-1.9042,2.8015-3.92,2.8a5.7477,5.7477,0,0,1-2.9121-1.12,6.4348,6.4348,0,0,1-.6436-.56,8.7867,8.7867,0,0,0-.8681-.728,5.6146,5.6146,0,0,0-2.9961-.728,5.0368,5.0368,0,0,0-3.0235.8681A2.8026,2.8026,0,0,0,131.86,25.91a2.8812,2.8812,0,0,0,1.4287,2.4917,8.81,8.81,0,0,0,3.5556,1.2881,42.0634,42.0634,0,0,1,4.6485,1.0361,29.02,29.02,0,0,1,4.6484,1.708,8.2061,8.2061,0,0,1,3.5547,3.5,12.1549,12.1549,0,0,1,1.4287,6.1324,13.5922,13.5922,0,0,1-1.456,6.4121,11.08,11.08,0,0,1-3.8086,4.2832,17.3736,17.3736,0,0,1-9.6875,2.9687,18.8205,18.8205,0,0,1-4.9844-.6445,13.4854,13.4854,0,0,1-3.8076-1.5957,13.5976,13.5976,0,0,1-4.1436-3.4717Z"/><path class="cls-2" d="M155.38,49.4025a5.3646,5.3646,0,0,1-1.4551-3.22q0-1.4283,2.4082-3.78a4.2431,4.2431,0,0,1,2.9668-1.3437q1.5674,0,4.3692,2.8a8.4683,8.4683,0,0,0,2.2392,1.8193,5.3122,5.3122,0,0,0,2.6885.8682q5.2075,0,5.208-4.2559a2.5168,2.5168,0,0,0-1.4287-2.1562,10.4748,10.4748,0,0,0-3.5557-1.26,30.3941,30.3941,0,0,1-4.5918-1.26,30.1734,30.1734,0,0,1-4.5928-2.0439,9.2671,9.2671,0,0,1-3.5546-3.7241,12.3447,12.3447,0,0,1-1.4288-6.1319,11.772,11.772,0,0,1,3.668-8.5957q3.6666-3.6672,9.9961-3.6684a20.4653,20.4653,0,0,1,6.1318.8681,11.7692,11.7692,0,0,1,3.836,1.7642l1.4,1.064q1.7343,1.6245,1.7363,2.7441a6.1786,6.1786,0,0,1-1.3447,3.08q-1.9044,2.8015-3.92,2.8a5.7451,5.7451,0,0,1-2.9122-1.12,6.4379,6.4379,0,0,1-.6435-.56,8.7752,8.7752,0,0,0-.8682-.728,5.6146,5.6146,0,0,0-2.9961-.728,5.0418,5.0418,0,0,0-3.0244.8681,2.8034,2.8034,0,0,0-1.2031,2.4082,2.88,2.88,0,0,0,1.4277,2.4917,8.8046,8.8046,0,0,0,3.5557,1.2881,42.062,42.062,0,0,1,4.6484,1.0361,28.9767,28.9767,0,0,1,4.6475,1.708,8.21,8.21,0,0,1,3.5566,3.5,12.1642,12.1642,0,0,1,1.4278,6.1324,13.5922,13.5922,0,0,1-1.4561,6.4121,11.0916,11.0916,0,0,1-3.8076,4.2832,17.3786,17.3786,0,0,1-9.6885,2.9687,18.8136,18.8136,0,0,1-4.9834-.6445,13.4814,13.4814,0,0,1-3.8086-1.5957,13.64,13.64,0,0,1-4.1445-3.4717Z"/><path class="cls-3" d="M127.6061,70.41a14.8174,14.8174,0,0,1,1.455,6.6084,14.6388,14.6388,0,0,1-1.455,6.58,12.942,12.942,0,0,1-3.752,4.6758,15.6,15.6,0,0,1-9.6328,3.584h-7v6.3281a16.1157,16.1157,0,0,1-.084,1.9316,4.4984,4.4984,0,0,1-.5312,1.4844q-.7852,1.5117-4.3692,1.5117-3.92,0-4.5918-2.0722a9.3691,9.3691,0,0,1-.3359-2.9122V67.05a16.3354,16.3354,0,0,1,.084-1.9317,4.4855,4.4855,0,0,1,.5322-1.4843q.7836-1.5118,4.3682-1.5118h11.9843a15.5374,15.5374,0,0,1,9.5762,3.584A12.9,12.9,0,0,1,127.6061,70.41ZM117.5816,80.714a4.3448,4.3448,0,0,0,1.6241-3.6953,4.4268,4.4268,0,0,0-1.6241-3.7246,5.4276,5.4276,0,0,0-3.36-1.26h-7v9.9122h7.0566A5.4248,5.4248,0,0,0,117.5816,80.714Z"/><path class="cls-3" d="M132.7008,67.05a16.3354,16.3354,0,0,1,.084-1.9317,4.4629,4.4629,0,0,1,.5322-1.4843q.7823-1.5118,4.3672-1.5118,3.92,0,4.6484,2.0723a11.1523,11.1523,0,0,1,.2793,2.9121V98.2424a16.0178,16.0178,0,0,1-.084,1.96,4.47,4.47,0,0,1-.5312,1.4561q-.7853,1.5117-4.3682,1.5117-3.9213,0-4.5918-2.1279a8.812,8.812,0,0,1-.3359-2.8555Z"/><path class="cls-3" d="M173.608,63.83a2.6669,2.6669,0,0,1,1.5957-1.3154,8.942,8.942,0,0,1,2.66-.3369,9.6581,9.6581,0,0,1,2.5761.28,4.1084,4.1084,0,0,1,1.4561.6718,2.2974,2.2974,0,0,1,.7,1.1768,8.8116,8.8116,0,0,1,.3359,2.8555v31.08a16.2266,16.2266,0,0,1-.084,1.96,4.4965,4.4965,0,0,1-.5322,1.4561q-.7851,1.5117-4.3682,1.5117a9.2029,9.2029,0,0,1-3.0234-.3359,3.2645,3.2645,0,0,1-1.4-1.0635q-12.6006-16.8-16.5762-21.9522V98.2424a16.0434,16.0434,0,0,1-.0839,1.96,4.5154,4.5154,0,0,1-.5313,1.4561q-.7851,1.5117-4.3691,1.5117-3.4718,0-4.2559-1.5117a4.4556,4.4556,0,0,1-.5312-1.5117,16.8715,16.8715,0,0,1-.084-1.96V66.9386a6.8346,6.8346,0,0,1,.5312-3.1084,2.6688,2.6688,0,0,1,1.5967-1.3154,11.4739,11.4739,0,0,1,5.4033-.0283,3.4391,3.4391,0,0,1,1.3731.7,14.6752,14.6752,0,0,1,1.2871,1.456q11.8153,16.0724,15.792,21.2237V66.9386A6.8188,6.8188,0,0,1,173.608,63.83Z"/><path class="cls-3" d="M83.7624,78.6522,69.34,64.6035c-1.3221-1.3417-1.655-.5093-1.655.1368v6.47L56.9518,78.9751H50.4742c-1.8432,0-.3789,1.9407-.6611,1.6176l8.1328,7.904L51.1353,95.198a.9352.9352,0,0,0,0,1.3391.987.987,0,0,0,1.3727,0l6.8081-6.6539,8.0869,7.9485c-.2364-.2311,1.7008,1.0162,1.7008-.6461V90.8075l7.9444-10.4906h6.0049c.9939-.0472,2.3185-.0472.7093-1.6647ZM52.79,80.779H57l10.26,10.0285V94.92Zm15.3679,8.18-9.3149-9.1041,9.5056-6.7484,6.808,6.7484Zm8.4172-10.49-6.9986-6.84V67.5133l11.2086,10.955Z"/></svg>