<svg id="Layer_1" data-name="Layer 1" xmlns="http://www.w3.org/2000/svg" width="103.7617mm" height="40.3177mm" viewBox="0 0 294.1277 114.2863"><defs><style>.cls-1{fill:#ff7c5e;}.cls-2{fill:#1c1f4b;}</style></defs><title>Pin</title><ellipse class="cls-1" cx="60.6485" cy="61.7758" rx="51.6596" ry="52.5105"/><path class="cls-2" d="M140.072,51.0239l1.0088-.728a6.6638,6.6638,0,0,1,2.6875-1.12q1.7358,0,3.752,3.1362a6.5154,6.5154,0,0,1,1.2324,3.1357,2.7075,2.7075,0,0,1-.7568,1.96,8.8043,8.8043,0,0,1-1.7637,1.4q-1.0078.6166-1.9317,1.1758a20.32,20.32,0,0,1-3.78,1.456,18.42,18.42,0,0,1-5.5157.896,21.4792,21.4792,0,0,1-5.3759-.7,22.7089,22.7089,0,0,1-5.6006-2.352,23.0849,23.0849,0,0,1-5.18-4.0318,18.5457,18.5457,0,0,1-3.78-6.104,21.6642,21.6642,0,0,1-1.4834-8.0923,20.7145,20.7145,0,0,1,1.4561-7.9238,18.1351,18.1351,0,0,1,3.7236-5.88,21.3083,21.3083,0,0,1,5.18-3.8921,22.6607,22.6607,0,0,1,11.0322-3.0239A21.3614,21.3614,0,0,1,144.44,22.8l1.3437.7842q1.0094.6167,1.5684,1.0078a3.3914,3.3914,0,0,1,1.4561,2.66,5.3505,5.3505,0,0,1-1.1758,3.1079q-2.1841,3.0243-3.92,3.024a5.9162,5.9162,0,0,1-2.8565-1.232,9.6767,9.6767,0,0,0-6.2715-1.9038,12.2255,12.2255,0,0,0-7.1679,2.52A9.4267,9.4267,0,0,0,124.616,36.24a12.0261,12.0261,0,0,0,0,10.1363,9.6794,9.6794,0,0,0,2.8564,3.5278,11.9848,11.9848,0,0,0,7.1123,2.4639A11.6555,11.6555,0,0,0,137.86,51.92,8.4893,8.4893,0,0,0,140.072,51.0239Z"/><path class="cls-2" d="M162.36,53.4878h15.2315a6.3778,6.3778,0,0,1,2.6884.42,2.1293,2.1293,0,0,1,1.12,1.3164,10.2791,10.2791,0,0,1,0,4.76,1.9332,1.9332,0,0,1-.9522,1.2319,6.3114,6.3114,0,0,1-2.9121.56h-20.16q-3.92,0-4.5918-2.128a8.7843,8.7843,0,0,1-.3359-2.8559V25.6557a16.1328,16.1328,0,0,1,.084-1.9316,4.4588,4.4588,0,0,1,.5322-1.4844q.7823-1.5117,4.3672-1.5117,3.92,0,4.6484,2.0718a11.1411,11.1411,0,0,1,.28,2.9121Z"/><path class="cls-2" d="M209.0066,23.64l15.12,31.2481a7.3108,7.3108,0,0,1,.9522,2.8559q0,2.0164-3.2481,3.64a7.35,7.35,0,0,1-2.9961.9521,2.9937,2.9937,0,0,1-1.792-.5039,3.3371,3.3371,0,0,1-1.0078-1.0639q-.309-.56-.8681-1.68L212.2546,53.04H196.7429l-2.9121,6.0479q-.561,1.12-.8681,1.624a3.9808,3.9808,0,0,1-1.0079,1.0361,2.8841,2.8841,0,0,1-1.7919.5318,7.3424,7.3424,0,0,1-2.9961-.9522q-3.2476-1.5666-3.2481-3.584a7.3108,7.3108,0,0,1,.9522-2.8559l15.12-31.3037a4.894,4.894,0,0,1,1.876-2.0723,4.96,4.96,0,0,1,2.66-.7837A4.7414,4.7414,0,0,1,209.0066,23.64ZM204.4705,37.08l-3.6953,7.6718h7.4472Z"/><path class="cls-2" d="M227.0955,56.0078a5.36,5.36,0,0,1-1.4561-3.22q0-1.4283,2.4072-3.78a4.2512,4.2512,0,0,1,2.9688-1.3438q1.5659,0,4.3672,2.8a8.4983,8.4983,0,0,0,2.24,1.82,5.3168,5.3168,0,0,0,2.6885.8681q5.2075,0,5.208-4.2558a2.5165,2.5165,0,0,0-1.4287-2.1563,10.4769,10.4769,0,0,0-3.5557-1.26,30.4259,30.4259,0,0,1-4.5918-1.26,30.1274,30.1274,0,0,1-4.5918-2.0439,9.2643,9.2643,0,0,1-3.5566-3.7242A12.3546,12.3546,0,0,1,226.367,32.32a11.7717,11.7717,0,0,1,3.6679-8.5957q3.668-3.6672,9.9961-3.6685a20.4664,20.4664,0,0,1,6.1319.8682,11.77,11.77,0,0,1,3.8359,1.7642l1.4,1.0639q1.7343,1.6245,1.7363,2.7442a6.179,6.179,0,0,1-1.3447,3.08q-1.9044,2.8014-3.92,2.8a5.7445,5.7445,0,0,1-2.9122-1.12,6.4179,6.4179,0,0,1-.6435-.56,8.7613,8.7613,0,0,0-.8682-.728,5.6143,5.6143,0,0,0-2.9961-.7281,5.0347,5.0347,0,0,0-3.0234.8682,2.8017,2.8017,0,0,0-1.2041,2.4082,2.88,2.88,0,0,0,1.4277,2.4917,8.8107,8.8107,0,0,0,3.5557,1.2881,42.062,42.062,0,0,1,4.6484,1.0361,28.9767,28.9767,0,0,1,4.6475,1.708,8.21,8.21,0,0,1,3.5566,3.5,12.1633,12.1633,0,0,1,1.4278,6.1319,13.5894,13.5894,0,0,1-1.4561,6.4121,11.0939,11.0939,0,0,1-3.8076,4.2837,17.3781,17.3781,0,0,1-9.6885,2.9682,18.8266,18.8266,0,0,1-4.9844-.644,15.93,15.93,0,0,1-7.9511-5.0679Z"/><path class="cls-2" d="M259.7429,56.0078a5.36,5.36,0,0,1-1.456-3.22q0-1.4283,2.4072-3.78a4.2512,4.2512,0,0,1,2.9688-1.3438q1.5659,0,4.3671,2.8a8.5006,8.5006,0,0,0,2.24,1.82,5.3168,5.3168,0,0,0,2.6884.8681q5.2075,0,5.2081-4.2558A2.5164,2.5164,0,0,0,276.738,46.74a10.4763,10.4763,0,0,0-3.5556-1.26,30.4227,30.4227,0,0,1-4.5918-1.26,30.123,30.123,0,0,1-4.5918-2.0439,9.2651,9.2651,0,0,1-3.5567-3.7242,12.3556,12.3556,0,0,1-1.4277-6.1318,11.7718,11.7718,0,0,1,3.668-8.5957q3.668-3.6672,9.9961-3.6685a20.4653,20.4653,0,0,1,6.1318.8682,11.7685,11.7685,0,0,1,3.8359,1.7642l1.4,1.0639q1.7344,1.6245,1.7364,2.7442a6.1793,6.1793,0,0,1-1.3448,3.08q-1.9042,2.8014-3.92,2.8a5.7439,5.7439,0,0,1-2.9121-1.12,6.4179,6.4179,0,0,1-.6435-.56,8.7728,8.7728,0,0,0-.8682-.728,5.6146,5.6146,0,0,0-2.9961-.7281,5.0343,5.0343,0,0,0-3.0234.8682,2.8015,2.8015,0,0,0-1.2041,2.4082,2.88,2.88,0,0,0,1.4277,2.4917,8.81,8.81,0,0,0,3.5557,1.2881,42.067,42.067,0,0,1,4.6484,1.0361A28.9767,28.9767,0,0,1,283.15,39.04a8.21,8.21,0,0,1,3.5566,3.5,12.1643,12.1643,0,0,1,1.4277,6.1319,13.5894,13.5894,0,0,1-1.456,6.4121,11.0947,11.0947,0,0,1-3.8076,4.2837,17.3783,17.3783,0,0,1-9.6885,2.9682,18.8266,18.8266,0,0,1-4.9844-.644,15.9307,15.9307,0,0,1-7.9512-5.0679Z"/><path class="cls-2" d="M144.7205,77.0156a14.8044,14.8044,0,0,1,1.456,6.6084,14.6263,14.6263,0,0,1-1.456,6.58,12.9333,12.9333,0,0,1-3.752,4.6758,15.5977,15.5977,0,0,1-9.6318,3.584h-7v6.3281a16.31,16.31,0,0,1-.084,1.9316,4.5247,4.5247,0,0,1-.5322,1.4844q-.7853,1.5117-4.3682,1.5117-3.92,0-4.5918-2.0723a9.3374,9.3374,0,0,1-.3359-2.9121v-31.08a16.1191,16.1191,0,0,1,.084-1.9317,4.4582,4.4582,0,0,1,.5322-1.4839q.7822-1.5117,4.3672-1.5117h11.9843a15.5376,15.5376,0,0,1,9.5762,3.5835A12.8892,12.8892,0,0,1,144.7205,77.0156ZM134.6961,87.3193a4.3424,4.3424,0,0,0,1.624-3.6953,4.4242,4.4242,0,0,0-1.624-3.7246,5.4255,5.4255,0,0,0-3.3594-1.26h-7v9.9121h7.0556A5.423,5.423,0,0,0,134.6961,87.3193Z"/><path class="cls-2" d="M149.8162,73.6553a16.1191,16.1191,0,0,1,.084-1.9317,4.4582,4.4582,0,0,1,.5322-1.4839q.7823-1.5117,4.3672-1.5117,3.92,0,4.6484,2.0718a11.1434,11.1434,0,0,1,.28,2.9121v31.1357a16.23,16.23,0,0,1-.084,1.96,4.5442,4.5442,0,0,1-.5322,1.4561q-.7852,1.5117-4.3682,1.5117-3.92,0-4.5918-2.128a8.7828,8.7828,0,0,1-.3359-2.8554Z"/><path class="cls-2" d="M190.7234,70.436a2.6659,2.6659,0,0,1,1.5957-1.3159,8.96,8.96,0,0,1,2.66-.3364,9.6586,9.6586,0,0,1,2.5761.28,4.1022,4.1022,0,0,1,1.4561.6719,2.2954,2.2954,0,0,1,.7,1.1763,8.8116,8.8116,0,0,1,.3359,2.8555v31.08a16.23,16.23,0,0,1-.084,1.96,4.4965,4.4965,0,0,1-.5322,1.4561q-.7851,1.5117-4.3682,1.5117a9.2022,9.2022,0,0,1-3.0234-.336,3.2635,3.2635,0,0,1-1.4-1.0634q-12.5991-16.8-16.5762-21.9522v18.4238a16.0465,16.0465,0,0,1-.0839,1.96,4.5154,4.5154,0,0,1-.5313,1.4561q-.7851,1.5117-4.3682,1.5117-3.4731,0-4.2558-1.5117a4.4381,4.4381,0,0,1-.5322-1.5118,16.8683,16.8683,0,0,1-.084-1.96V73.5439a6.815,6.815,0,0,1,.5322-3.1079,2.66,2.66,0,0,1,1.5957-1.3159,11.4954,11.4954,0,0,1,5.4043-.0283,3.4335,3.4335,0,0,1,1.3711.7,14.541,14.541,0,0,1,1.2881,1.456q11.8154,16.0724,15.792,21.2237V73.5439A6.815,6.815,0,0,1,190.7234,70.436Z"/><path class="cls-2" d="M31.0888,30.9927H88.4551v4.7805a4.7789,4.7789,0,0,1-4.7806,4.7806H35.8694a4.7789,4.7789,0,0,1-4.7806-4.7806Zm0,0"/><path class="cls-2" d="M88.4551,88.359H31.0888v-4.78a4.779,4.779,0,0,1,4.7806-4.7806H83.6745a4.779,4.779,0,0,1,4.7806,4.7806Zm0,0"/><path class="cls-2" d="M54.9914,88.359h9.5611v14.3416a4.7806,4.7806,0,1,1-9.5611,0Zm0,0"/><path class="cls-2" d="M74.1136,78.7979H45.43V40.5538H74.1136Zm9.5609-47.8052H35.8693V88.359H83.6745Zm0,0"/></svg>